<?xml version="1.0" encoding="UTF-8"?>
<svg width="32" height="32" viewBox="0 0 32 32" xmlns="http://www.w3.org/2000/svg">
  <defs>
    <!-- Simple marble gradient -->
    <linearGradient id="marbleGradient" x1="0%" y1="0%" x2="100%" y2="100%">
      <stop offset="0%" stop-color="#ffffff" />
      <stop offset="100%" stop-color="#e9ecef" />
    </linearGradient>
    
    <!-- Subtle highlight -->
    <linearGradient id="highlightGradient" x1="20%" y1="20%" x2="80%" y2="80%">
      <stop offset="0%" stop-color="#ffffff" stop-opacity="0.6" />
      <stop offset="100%" stop-color="#ffffff" stop-opacity="0" />
    </linearGradient>

    <!-- Drop shadow -->
    <filter id="dropShadow" x="-20%" y="-20%" width="140%" height="140%">
      <feGaussianBlur in="SourceAlpha" stdDeviation="1" />
      <feOffset dx="1" dy="1" result="offsetblur" />
      <feComponentTransfer>
        <feFuncA type="linear" slope="0.2" />
      </feComponentTransfer>
      <feMerge>
        <feMergeNode />
        <feMergeNode in="SourceGraphic" />
      </feMerge>
    </filter>
  </defs>

  <!-- Main sphere with shadow -->
  <g filter="url(#dropShadow)">
    <!-- Base sphere -->
    <circle cx="16" cy="16" r="14" fill="url(#marbleGradient)" stroke="#d3d3d3" stroke-width="0.5" />
    
    <!-- More organic, marble-like curved lines -->
    <path d="M9,27 C11,24 13,20 15,18 S20,11 23,6 C24,5 25,3 27,3" fill="none" stroke="#333333" stroke-width="1.8" stroke-linecap="round" opacity="0.85" />
    <path d="M4,22 C7,19 9,16 11,13 S16,7 19,4 C21,2 22,1 24,1" fill="none" stroke="#333333" stroke-width="1.8" stroke-linecap="round" opacity="0.85" />
    
    <!-- Small vein branches -->
    <path d="M14,19 C15,18 16,17 17,17" fill="none" stroke="#333333" stroke-width="1" stroke-linecap="round" opacity="0.7" />
    <path d="M10,16 C11,15 12,15 13,15" fill="none" stroke="#333333" stroke-width="0.8" stroke-linecap="round" opacity="0.6" />
    
    <!-- Subtle highlight overlay -->
    <circle cx="16" cy="16" r="14" fill="url(#highlightGradient)" />
  </g>
</svg> 