<?xml version="1.0" encoding="UTF-8"?>
<svg width="200" height="200" viewBox="0 0 200 200" xmlns="http://www.w3.org/2000/svg">
  <defs>
    <!-- Simple marble gradient -->
    <linearGradient id="marbleGradient" x1="0%" y1="0%" x2="100%" y2="100%">
      <stop offset="0%" stop-color="#ffffff" />
      <stop offset="100%" stop-color="#e9ecef" />
    </linearGradient>
    
    <!-- Subtle highlight -->
    <linearGradient id="highlightGradient" x1="20%" y1="20%" x2="80%" y2="80%">
      <stop offset="0%" stop-color="#ffffff" stop-opacity="0.6" />
      <stop offset="100%" stop-color="#ffffff" stop-opacity="0" />
    </linearGradient>

    <!-- Drop shadow -->
    <filter id="dropShadow" x="-20%" y="-20%" width="140%" height="140%">
      <feGaussianBlur in="SourceAlpha" stdDeviation="3" />
      <feOffset dx="2" dy="2" result="offsetblur" />
      <feComponentTransfer>
        <feFuncA type="linear" slope="0.2" />
      </feComponentTransfer>
      <feMerge>
        <feMergeNode />
        <feMergeNode in="SourceGraphic" />
      </feMerge>
    </filter>
  </defs>

  <!-- Main sphere with shadow -->
  <g filter="url(#dropShadow)">
    <!-- Base sphere -->
    <circle cx="100" cy="100" r="90" fill="url(#marbleGradient)" stroke="#d3d3d3" stroke-width="0.8" />
    
    <!-- More organic, marble-like curved lines -->
    <path d="M45,165 C60,150 70,130 85,115 S115,75 135,50 C145,38 160,28 170,25" fill="none" stroke="#333333" stroke-width="9" stroke-linecap="round" opacity="0.85" />
    <path d="M25,140 C40,125 50,110 65,90 S95,45 115,30 C125,20 145,10 155,5" fill="none" stroke="#333333" stroke-width="9" stroke-linecap="round" opacity="0.85" />
    
    <!-- Small vein branches -->
    <path d="M80,120 C85,115 95,110 100,108" fill="none" stroke="#333333" stroke-width="5" stroke-linecap="round" opacity="0.7" />
    <path d="M60,100 C65,95 75,90 85,88" fill="none" stroke="#333333" stroke-width="4" stroke-linecap="round" opacity="0.6" />
    
    <!-- Subtle highlight overlay -->
    <circle cx="100" cy="100" r="90" fill="url(#highlightGradient)" />
  </g>
</svg> 