<svg width="800" height="600" xmlns="http://www.w3.org/2000/svg">
  <defs>
    <pattern id="topo-pattern" x="0" y="0" width="200" height="200" patternUnits="userSpaceOnUse">
      <path d="M0,100 C50,80 150,120 200,100" fill="none" stroke="#333" stroke-width="0.5" opacity="0.3"/>
      <path d="M0,90 C50,70 150,110 200,90" fill="none" stroke="#333" stroke-width="0.5" opacity="0.3"/>
      <path d="M0,80 C50,60 150,100 200,80" fill="none" stroke="#333" stroke-width="0.5" opacity="0.3"/>
      <path d="M0,70 C50,50 150,90 200,70" fill="none" stroke="#333" stroke-width="0.5" opacity="0.3"/>
      <path d="M0,60 C50,40 150,80 200,60" fill="none" stroke="#333" stroke-width="0.5" opacity="0.3"/>
      <path d="M0,50 C50,30 150,70 200,50" fill="none" stroke="#333" stroke-width="0.5" opacity="0.3"/>
      <path d="M0,40 C50,20 150,60 200,40" fill="none" stroke="#333" stroke-width="0.5" opacity="0.3"/>
      <path d="M0,30 C50,10 150,50 200,30" fill="none" stroke="#333" stroke-width="0.5" opacity="0.3"/>
      <path d="M0,20 C50,0 150,40 200,20" fill="none" stroke="#333" stroke-width="0.5" opacity="0.3"/>
      <path d="M0,10 C50,-10 150,30 200,10" fill="none" stroke="#333" stroke-width="0.5" opacity="0.3"/>
      <path d="M0,110 C50,90 150,130 200,110" fill="none" stroke="#333" stroke-width="0.5" opacity="0.3"/>
      <path d="M0,120 C50,100 150,140 200,120" fill="none" stroke="#333" stroke-width="0.5" opacity="0.3"/>
      <path d="M0,130 C50,110 150,150 200,130" fill="none" stroke="#333" stroke-width="0.5" opacity="0.3"/>
      <path d="M0,140 C50,120 150,160 200,140" fill="none" stroke="#333" stroke-width="0.5" opacity="0.3"/>
      <path d="M0,150 C50,130 150,170 200,150" fill="none" stroke="#333" stroke-width="0.5" opacity="0.3"/>
      <path d="M0,160 C50,140 150,180 200,160" fill="none" stroke="#333" stroke-width="0.5" opacity="0.3"/>
      <path d="M0,170 C50,150 150,190 200,170" fill="none" stroke="#333" stroke-width="0.5" opacity="0.3"/>
      <path d="M0,180 C50,160 150,200 200,180" fill="none" stroke="#333" stroke-width="0.5" opacity="0.3"/>
      <path d="M0,190 C50,170 150,210 200,190" fill="none" stroke="#333" stroke-width="0.5" opacity="0.3"/>
      <path d="M0,200 C50,180 150,220 200,200" fill="none" stroke="#333" stroke-width="0.5" opacity="0.3"/>
    </pattern>
  </defs>
  <rect width="100%" height="100%" fill="#121212"/>
  <rect width="100%" height="100%" fill="url(#topo-pattern)"/>
</svg> 