<svg xmlns="http://www.w3.org/2000/svg" width="36" height="36" viewBox="0 0 36 36" fill="none">
  <path d="M18 3C9.716 3 3 9.716 3 18C3 26.284 9.716 33 18 33C26.284 33 33 26.284 33 18C33 9.716 26.284 3 18 3Z" fill="#ffffff" fill-opacity="0"/>
  <path d="M18 3C9.716 3 3 9.716 3 18C3 26.284 9.716 33 18 33C26.284 33 33 26.284 33 18C33 9.716 26.284 3 18 3Z" stroke="#1a1a1a" stroke-width="2.5"/>
  <line x1="9" y1="9" x2="27" y2="27" stroke="#1a1a1a" stroke-width="2.5" stroke-linecap="round"/>
  <line x1="9" y1="27" x2="27" y2="9" stroke="#1a1a1a" stroke-width="2.5" stroke-linecap="round"/>
</svg> 