<?xml version="1.0" encoding="UTF-8"?>
<svg width="200" height="200" viewBox="0 0 200 200" xmlns="http://www.w3.org/2000/svg">
  <defs>
    <!-- Simple marble gradient -->
    <linearGradient id="marbleGradient" x1="0%" y1="0%" x2="100%" y2="100%">
      <stop offset="0%" stop-color="#ffffff" />
      <stop offset="100%" stop-color="#e9ecef" />
    </linearGradient>
    
    <!-- Subtle highlight -->
    <linearGradient id="highlightGradient" x1="20%" y1="20%" x2="80%" y2="80%">
      <stop offset="0%" stop-color="#ffffff" stop-opacity="0.6" />
      <stop offset="100%" stop-color="#ffffff" stop-opacity="0" />
    </linearGradient>

    <!-- Drop shadow -->
    <filter id="dropShadow" x="-20%" y="-20%" width="140%" height="140%">
      <feGaussianBlur in="SourceAlpha" stdDeviation="3" />
      <feOffset dx="2" dy="2" result="offsetblur" />
      <feComponentTransfer>
        <feFuncA type="linear" slope="0.2" />
      </feComponentTransfer>
      <feMerge>
        <feMergeNode />
        <feMergeNode in="SourceGraphic" />
      </feMerge>
    </filter>
    
    <!-- Clipping path to ensure lines stay within circle -->
    <clipPath id="circleClip">
      <circle cx="100" cy="100" r="88" />
    </clipPath>
  </defs>

  <!-- Main sphere with shadow -->
  <g filter="url(#dropShadow)">
    <!-- Base sphere -->
    <circle cx="100" cy="100" r="90" fill="url(#marbleGradient)" stroke="#d3d3d3" stroke-width="0.8" />
    
    <!-- Lines container with clipping path -->
    <g clip-path="url(#circleClip)">
      <!-- More organic, marble-like curved lines - modified to stay inside circle -->
      <path d="M50,160 C65,145 75,125 90,110 S115,75 130,55 C140,43 150,30 160,28" fill="none" stroke="#333333" stroke-width="9" stroke-linecap="round" opacity="0.85" />
      <path d="M30,135 C45,120 55,105 70,85 S95,50 110,35 C120,25 135,15 145,12" fill="none" stroke="#333333" stroke-width="9" stroke-linecap="round" opacity="0.85" />
      
      <!-- Small vein branches -->
      <path d="M80,120 C85,115 95,110 100,108" fill="none" stroke="#333333" stroke-width="5" stroke-linecap="round" opacity="0.7" />
      <path d="M60,100 C65,95 75,90 85,88" fill="none" stroke="#333333" stroke-width="4" stroke-linecap="round" opacity="0.6" />
    </g>
    
    <!-- Subtle highlight overlay -->
    <circle cx="100" cy="100" r="90" fill="url(#highlightGradient)" />
  </g>
</svg> 